<?xml version="1.0" encoding="UTF-8"?>
<svg version="1.1" xmlns="http://www.w3.org/2000/svg" width="316" height="316">
<path d="M0 0 C1.03887863 -0.00426498 2.07775726 -0.00852997 3.14811707 -0.01292419 C4.29256287 -0.01247101 5.43700867 -0.01201782 6.61613464 -0.0115509 C8.41868965 -0.01658882 8.41868965 -0.01658882 10.25765991 -0.02172852 C13.55944405 -0.02961689 16.86116531 -0.03290707 20.16295457 -0.0335443 C22.91881545 -0.03449307 25.67467027 -0.03817114 28.43052882 -0.0417164 C34.93380679 -0.04986518 41.43707091 -0.05230031 47.94035339 -0.05158997 C54.6477129 -0.05098957 61.35499188 -0.06153267 68.06233102 -0.07733363 C73.82036747 -0.09041466 79.57837763 -0.0957736 85.33642882 -0.09513456 C88.77558227 -0.09487966 92.21466423 -0.09772585 95.65380287 -0.10831261 C99.49153911 -0.1198031 103.32916525 -0.11524329 107.16691589 -0.10920715 C108.87447556 -0.11763641 108.87447556 -0.11763641 110.61653137 -0.12623596 C112.18753853 -0.11994423 112.18753853 -0.11994423 113.7902832 -0.11352539 C114.69749524 -0.11407016 115.60470728 -0.11461493 116.53941059 -0.1151762 C119.35659248 0.16020033 121.51864059 0.96853893 124.08561707 2.13371277 C124.17834603 11.56531077 124.24939654 20.99675157 124.29286575 30.42870617 C124.31373013 34.80848493 124.34202642 39.18795154 124.38737488 43.56755066 C124.43087419 47.79507828 124.45476283 52.02230588 124.46512604 56.25004005 C124.47251013 57.86199478 124.48692973 59.4739333 124.50853729 61.08576012 C124.53762684 63.34583742 124.54157094 65.60467919 124.53971863 67.86491394 C124.54860107 69.15064804 124.55748352 70.43638214 124.56663513 71.76107788 C123.87526644 76.60857598 121.43560435 78.78372548 118.08561707 82.13371277 C118.08561707 82.46371277 118.08561707 82.79371277 118.08561707 83.13371277 C115.77561707 83.13371277 113.46561707 83.13371277 111.08561707 83.13371277 C111.08561707 105.90371277 111.08561707 128.67371277 111.08561707 152.13371277 C113.39561707 152.13371277 115.70561707 152.13371277 118.08561707 152.13371277 C118.08561707 152.79371277 118.08561707 153.45371277 118.08561707 154.13371277 C120.35838457 155.62895455 122.65361136 156.91770992 125.08561707 158.13371277 C124.75561707 182.22371277 124.42561707 206.31371277 124.08561707 231.13371277 C118.6230211 233.86501075 114.56752796 234.2866946 108.57853699 234.29484558 C107.70991531 234.29981049 106.84129364 234.30477539 105.9463501 234.30989075 C103.06958731 234.32450873 100.19287966 234.33131393 97.31608582 234.33683777 C95.31692503 234.34258971 93.31776427 234.34834744 91.31860352 234.35411072 C87.12464643 234.3646198 82.93070851 234.37046301 78.73674011 234.37394714 C73.36658144 234.37943032 67.99667652 234.40345503 62.6265974 234.4319191 C58.49587264 234.45055687 54.36520884 234.4557517 50.23444557 234.45728302 C48.25492784 234.46030772 46.27541113 234.46833008 44.29593468 234.4814682 C41.52405456 234.49855167 38.75279236 234.49664276 35.98088074 234.49015808 C35.16559906 234.49937286 34.35031738 234.50858765 33.5103302 234.51808167 C27.64447593 234.47516466 23.56615562 233.21993281 18.97233582 229.35636902 C16.63649194 226.6046192 14.74875769 223.65792856 12.89811707 220.57121277 C12.54298035 219.9943573 12.18784363 219.41750183 11.82194519 218.82316589 C10.27473575 216.27775681 9.03112909 213.97024885 8.08561707 211.13371277 C7.09916865 210.12034239 6.09755516 209.12163042 5.08561707 208.13371277 C4.1589825 206.80392758 3.27074158 205.44690608 2.41374207 204.07121277 C1.91358582 203.27328308 1.41342957 202.47535339 0.89811707 201.65324402 C0.38249207 200.82179871 -0.13313293 199.99035339 -0.66438293 199.13371277 C-1.67977269 197.50856576 -2.6954 195.88356716 -3.71125793 194.25871277 C-4.76828918 192.56746277 -5.82532043 190.87621277 -6.91438293 189.13371277 C-9.22438293 185.50371277 -11.53438293 181.87371277 -13.91438293 178.13371277 C-14.24438293 192.65371277 -14.57438293 207.17371277 -14.91438293 222.13371277 C-15.57438293 221.80371277 -16.23438293 221.47371277 -16.91438293 221.13371277 C-16.91438293 224.43371277 -16.91438293 227.73371277 -16.91438293 231.13371277 C-21.30229769 233.61541653 -24.6578868 234.56745749 -29.68074036 234.81291199 C-30.32741008 234.84599897 -30.9740798 234.87908596 -31.64034557 234.91317558 C-39.63965155 235.28236074 -47.64670771 235.27822573 -55.65266418 235.26652527 C-57.31120823 235.26720131 -58.96975218 235.26817382 -60.6282959 235.26942444 C-64.07466085 235.27088525 -67.52099959 235.26879818 -70.96736145 235.26408386 C-75.35917635 235.25836495 -79.75093039 235.26168953 -84.14274311 235.26765633 C-87.55645193 235.27128675 -90.97014655 235.27011237 -94.38385582 235.26752853 C-96.00279434 235.26686729 -97.6217342 235.26765922 -99.24067116 235.27000809 C-121.01192743 235.29469497 -121.01192743 235.29469497 -128.91438293 232.13371277 C-128.91438293 207.38371277 -128.91438293 182.63371277 -128.91438293 157.13371277 C-126.43938293 156.14371277 -126.43938293 156.14371277 -123.91438293 155.13371277 C-123.91438293 154.47371277 -123.91438293 153.81371277 -123.91438293 153.13371277 C-121.27438293 153.13371277 -118.63438293 153.13371277 -115.91438293 153.13371277 C-115.91438293 130.69371277 -115.91438293 108.25371277 -115.91438293 85.13371277 C-117.23438293 84.80371277 -118.55438293 84.47371277 -119.91438293 84.13371277 C-119.91438293 83.80371277 -119.91438293 83.47371277 -119.91438293 83.13371277 C-121.19313293 83.05121277 -122.47188293 82.96871277 -123.78938293 82.88371277 C-125.96907043 82.74308777 -125.96907043 82.74308777 -127.91438293 82.13371277 C-130.38627421 78.60820057 -130.18474915 74.93283445 -130.14143372 70.79484558 C-130.14172577 70.06274368 -130.14201782 69.33064178 -130.14231873 68.57635498 C-130.14092841 66.16306088 -130.12538142 63.75007776 -130.10969543 61.33683777 C-130.10596424 59.66103789 -130.10311777 57.98523583 -130.10112 56.30943298 C-130.0934919 51.90352838 -130.07385049 47.49775609 -130.05171204 43.09190369 C-130.03123586 38.5941395 -130.02211449 34.0963539 -130.01203918 29.59855652 C-129.99060382 20.77688387 -129.95647781 11.95530933 -129.91438293 3.13371277 C-125.77130123 1.1555671 -122.38601807 0.87098873 -117.81672668 0.84318542 C-116.77429306 0.83310959 -116.77429306 0.83310959 -115.71080017 0.8228302 C-113.4244208 0.80390557 -111.13833564 0.79992932 -108.85188293 0.79777527 C-107.25674826 0.79134509 -105.66161476 0.78461657 -104.06648254 0.77760315 C-100.72766891 0.76564543 -97.38895865 0.76192093 -94.05012512 0.7631073 C-89.77610403 0.76331078 -85.50274572 0.73597291 -81.22888184 0.70156288 C-77.93628402 0.67930895 -74.64384635 0.67526923 -71.35118103 0.67632675 C-69.77553516 0.6739699 -68.19988494 0.66514151 -66.62431335 0.64966202 C-64.41975065 0.63002477 -62.21662594 0.6358288 -60.01203918 0.64787292 C-58.13270691 0.64359787 -58.13270691 0.64359787 -56.21540833 0.63923645 C-52.3306157 1.22115804 -50.75008403 2.49204377 -47.91438293 5.13371277 C-46.92438293 5.62871277 -46.92438293 5.62871277 -45.91438293 6.13371277 C-45.41938293 7.61871277 -45.41938293 7.61871277 -44.91438293 9.13371277 C-43.92438293 9.62871277 -43.92438293 9.62871277 -42.91438293 10.13371277 C-42.41938293 11.61871277 -42.41938293 11.61871277 -41.91438293 13.13371277 C-41.11000793 13.91746277 -40.30563293 14.70121277 -39.47688293 15.50871277 C-36.92104574 18.12688745 -36.02361166 19.72070132 -34.91438293 23.13371277 C-34.04983856 25.83837019 -34.04983856 25.83837019 -32.91438293 28.13371277 C-31.42938293 28.62871277 -31.42938293 28.62871277 -29.91438293 29.13371277 C-28.56282043 30.84074402 -28.56282043 30.84074402 -27.28938293 32.94621277 C-26.86399231 33.63328308 -26.43860168 34.32035339 -26.00032043 35.02824402 C-24.91438293 37.13371277 -24.91438293 37.13371277 -24.39094543 39.33293152 C-24.23367981 39.92718933 -24.07641418 40.52144714 -23.91438293 41.13371277 C-23.25438293 41.46371277 -22.59438293 41.79371277 -21.91438293 42.13371277 C-21.72875793 43.03090027 -21.72875793 43.03090027 -21.53938293 43.94621277 C-20.70859173 46.85398199 -19.06848656 48.04296513 -16.91438293 50.13371277 C-13.91438293 54.63371277 -13.91438293 54.63371277 -13.91438293 57.13371277 C-13.25438293 56.98933777 -12.59438293 56.84496277 -11.91438293 56.69621277 C-10.92438293 56.51058777 -9.93438293 56.32496277 -8.91438293 56.13371277 C-7.63563293 55.88621277 -6.35688293 55.63871277 -5.03938293 55.38371277 C-1.62977015 55.02480616 1.25322931 55.17173205 4.41374207 56.71574402 C8.54715968 60.22142298 11.33675701 66.13296149 12.63639832 71.34074402 C13.00938878 73.36090739 13.00938878 73.36090739 14.89811707 75.38371277 C17.92620584 79.19045295 20.4731331 83.47308243 21.57389832 88.25480652 C21.97999519 90.35905384 21.97999519 90.35905384 24.08561707 92.13371277 C25.68351057 87.1802429 24.36868521 83.00088862 23.08561707 78.13371277 C22.42561707 78.13371277 21.76561707 78.13371277 21.08561707 78.13371277 C21.02503113 77.57683777 20.96444519 77.01996277 20.90202332 76.44621277 C20.72699303 74.85209081 20.54839312 73.25835811 20.36686707 71.66496277 C20.18647445 70.04142919 20.01866962 68.41641866 19.86686707 66.78996277 C19.67476304 64.89636596 19.38763167 63.01291473 19.08561707 61.13371277 C18.42561707 60.80371277 17.76561707 60.47371277 17.08561707 60.13371277 C17.08561707 58.15371277 17.08561707 56.17371277 17.08561707 54.13371277 C16.49393738 54.15691589 15.90225769 54.18011902 15.29264832 54.20402527 C6.592278 54.40272867 6.592278 54.40272867 3.08561707 52.13371277 C0.67112397 48.38708556 -0.30697088 45.58304282 0.08561707 41.13371277 C-0.57438293 41.13371277 -1.23438293 41.13371277 -1.91438293 41.13371277 C-3.36225704 38.04491467 -4.07721688 35.31174307 -4.41438293 31.94621277 C-4.52252664 28.11946563 -4.52252664 28.11946563 -6.91438293 26.13371277 C-7.40938293 24.64871277 -7.40938293 24.64871277 -7.91438293 23.13371277 C-8.40938293 22.14371277 -8.40938293 22.14371277 -8.91438293 21.13371277 C-9.40938293 19.64871277 -9.40938293 19.64871277 -9.91438293 18.13371277 C-10.40938293 17.14371277 -10.40938293 17.14371277 -10.91438293 16.13371277 C-11.91935146 13.1188072 -12.01773596 11.09189585 -11.97688293 7.94621277 C-11.9678595 7.04515808 -11.95883606 6.14410339 -11.94953918 5.21574402 C-11.93793762 4.52867371 -11.92633606 3.84160339 -11.91438293 3.13371277 C-11.13063293 2.82433777 -10.34688293 2.51496277 -9.53938293 2.19621277 C-5.93478455 0.73720866 -3.92703654 0.00726326 0 0 Z M-2.91438293 34.13371277 C-1.91438293 36.13371277 -1.91438293 36.13371277 -1.91438293 36.13371277 Z M1.08561707 44.13371277 C2.08561707 46.13371277 2.08561707 46.13371277 2.08561707 46.13371277 Z M3.08561707 48.13371277 C4.08561707 50.13371277 4.08561707 50.13371277 4.08561707 50.13371277 Z M21.08561707 70.13371277 C22.08561707 73.13371277 22.08561707 73.13371277 22.08561707 73.13371277 Z M109.08561707 83.13371277 C109.08561707 105.90371277 109.08561707 128.67371277 109.08561707 152.13371277 C109.41561707 152.13371277 109.74561707 152.13371277 110.08561707 152.13371277 C110.08561707 129.36371277 110.08561707 106.59371277 110.08561707 83.13371277 C109.75561707 83.13371277 109.42561707 83.13371277 109.08561707 83.13371277 Z M-114.91438293 85.13371277 C-114.91438293 107.57371277 -114.91438293 130.01371277 -114.91438293 153.13371277 C-114.58438293 153.13371277 -114.25438293 153.13371277 -113.91438293 153.13371277 C-113.91438293 130.69371277 -113.91438293 108.25371277 -113.91438293 85.13371277 C-114.24438293 85.13371277 -114.57438293 85.13371277 -114.91438293 85.13371277 Z M26.08561707 91.13371277 C27.08561707 95.13371277 27.08561707 95.13371277 27.08561707 95.13371277 Z M27.08561707 95.13371277 C28.08561707 99.13371277 28.08561707 99.13371277 28.08561707 99.13371277 Z M28.08561707 100.13371277 C27.75561707 101.12371277 27.42561707 102.11371277 27.08561707 103.13371277 C27.74561707 103.13371277 28.40561707 103.13371277 29.08561707 103.13371277 C28.75561707 102.14371277 28.42561707 101.15371277 28.08561707 100.13371277 Z " fill="#032959" transform="translate(160.9143829345703,40.86628723144531)"/>
<path d="M0 0 C1.03887863 -0.00426498 2.07775726 -0.00852997 3.14811707 -0.01292419 C4.29256287 -0.01247101 5.43700867 -0.01201782 6.61613464 -0.0115509 C8.41868965 -0.01658882 8.41868965 -0.01658882 10.25765991 -0.02172852 C13.55944405 -0.02961689 16.86116531 -0.03290707 20.16295457 -0.0335443 C22.91881545 -0.03449307 25.67467027 -0.03817114 28.43052882 -0.0417164 C34.93380679 -0.04986518 41.43707091 -0.05230031 47.94035339 -0.05158997 C54.6477129 -0.05098957 61.35499188 -0.06153267 68.06233102 -0.07733363 C73.82036747 -0.09041466 79.57837763 -0.0957736 85.33642882 -0.09513456 C88.77558227 -0.09487966 92.21466423 -0.09772585 95.65380287 -0.10831261 C99.49153911 -0.1198031 103.32916525 -0.11524329 107.16691589 -0.10920715 C108.87447556 -0.11763641 108.87447556 -0.11763641 110.61653137 -0.12623596 C112.18753853 -0.11994423 112.18753853 -0.11994423 113.7902832 -0.11352539 C114.69749524 -0.11407016 115.60470728 -0.11461493 116.53941059 -0.1151762 C119.35659248 0.16020033 121.51864059 0.96853893 124.08561707 2.13371277 C124.17834603 11.56531077 124.24939654 20.99675157 124.29286575 30.42870617 C124.31373013 34.80848493 124.34202642 39.18795154 124.38737488 43.56755066 C124.43087419 47.79507828 124.45476283 52.02230588 124.46512604 56.25004005 C124.47251013 57.86199478 124.48692973 59.4739333 124.50853729 61.08576012 C124.53762684 63.34583742 124.54157094 65.60467919 124.53971863 67.86491394 C124.54860107 69.15064804 124.55748352 70.43638214 124.56663513 71.76107788 C123.87526644 76.60857598 121.43560435 78.78372548 118.08561707 82.13371277 C118.08561707 82.46371277 118.08561707 82.79371277 118.08561707 83.13371277 C115.77561707 83.13371277 113.46561707 83.13371277 111.08561707 83.13371277 C111.08561707 105.90371277 111.08561707 128.67371277 111.08561707 152.13371277 C113.39561707 152.13371277 115.70561707 152.13371277 118.08561707 152.13371277 C118.08561707 152.79371277 118.08561707 153.45371277 118.08561707 154.13371277 C120.35838457 155.62895455 122.65361136 156.91770992 125.08561707 158.13371277 C124.75561707 182.22371277 124.42561707 206.31371277 124.08561707 231.13371277 C118.6230211 233.86501075 114.56752796 234.2866946 108.57853699 234.29484558 C107.70991531 234.29981049 106.84129364 234.30477539 105.9463501 234.30989075 C103.06958731 234.32450873 100.19287966 234.33131393 97.31608582 234.33683777 C95.31692503 234.34258971 93.31776427 234.34834744 91.31860352 234.35411072 C87.12464643 234.3646198 82.93070851 234.37046301 78.73674011 234.37394714 C73.36658144 234.37943032 67.99667652 234.40345503 62.6265974 234.4319191 C58.49587264 234.45055687 54.36520884 234.4557517 50.23444557 234.45728302 C48.25492784 234.46030772 46.27541113 234.46833008 44.29593468 234.4814682 C41.52405456 234.49855167 38.75279236 234.49664276 35.98088074 234.49015808 C35.16559906 234.49937286 34.35031738 234.50858765 33.5103302 234.51808167 C27.64447593 234.47516466 23.56615562 233.21993281 18.97233582 229.35636902 C16.63649194 226.6046192 14.74875769 223.65792856 12.89811707 220.57121277 C12.54298035 219.9943573 12.18784363 219.41750183 11.82194519 218.82316589 C10.27473575 216.27775681 9.03112909 213.97024885 8.08561707 211.13371277 C7.09916865 210.12034239 6.09755516 209.12163042 5.08561707 208.13371277 C4.1589825 206.80392758 3.27074158 205.44690608 2.41374207 204.07121277 C1.91358582 203.27328308 1.41342957 202.47535339 0.89811707 201.65324402 C0.38249207 200.82179871 -0.13313293 199.99035339 -0.66438293 199.13371277 C-1.67977269 197.50856576 -2.6954 195.88356716 -3.71125793 194.25871277 C-4.76828918 192.56746277 -5.82532043 190.87621277 -6.91438293 189.13371277 C-9.22438293 185.50371277 -11.53438293 181.87371277 -13.91438293 178.13371277 C-14.24438293 192.65371277 -14.57438293 207.17371277 -14.91438293 222.13371277 C-15.57438293 221.80371277 -16.23438293 221.47371277 -16.91438293 221.13371277 C-16.91438293 224.43371277 -16.91438293 227.73371277 -16.91438293 231.13371277 C-21.30229769 233.61541653 -24.6578868 234.56745749 -29.68074036 234.81291199 C-30.32741008 234.84599897 -30.9740798 234.87908596 -31.64034557 234.91317558 C-39.63965155 235.28236074 -47.64670771 235.27822573 -55.65266418 235.26652527 C-57.31120823 235.26720131 -58.96975218 235.26817382 -60.6282959 235.26942444 C-64.07466085 235.27088525 -67.52099959 235.26879818 -70.96736145 235.26408386 C-75.35917635 235.25836495 -79.75093039 235.26168953 -84.14274311 235.26765633 C-87.55645193 235.27128675 -90.97014655 235.27011237 -94.38385582 235.26752853 C-96.00279434 235.26686729 -97.6217342 235.26765922 -99.24067116 235.27000809 C-121.01192743 235.29469497 -121.01192743 235.29469497 -128.91438293 232.13371277 C-128.91438293 207.38371277 -128.91438293 182.63371277 -128.91438293 157.13371277 C-126.43938293 156.14371277 -126.43938293 156.14371277 -123.91438293 155.13371277 C-123.91438293 154.47371277 -123.91438293 153.81371277 -123.91438293 153.13371277 C-121.27438293 153.13371277 -118.63438293 153.13371277 -115.91438293 153.13371277 C-115.91438293 130.69371277 -115.91438293 108.25371277 -115.91438293 85.13371277 C-117.23438293 84.80371277 -118.55438293 84.47371277 -119.91438293 84.13371277 C-119.91438293 83.80371277 -119.91438293 83.47371277 -119.91438293 83.13371277 C-121.19313293 83.05121277 -122.47188293 82.96871277 -123.78938293 82.88371277 C-125.96907043 82.74308777 -125.96907043 82.74308777 -127.91438293 82.13371277 C-130.38627421 78.60820057 -130.18474915 74.93283445 -130.14143372 70.79484558 C-130.14172577 70.06274368 -130.14201782 69.33064178 -130.14231873 68.57635498 C-130.14092841 66.16306088 -130.12538142 63.75007776 -130.10969543 61.33683777 C-130.10596424 59.66103789 -130.10311777 57.98523583 -130.10112 56.30943298 C-130.0934919 51.90352838 -130.07385049 47.49775609 -130.05171204 43.09190369 C-130.03123586 38.5941395 -130.02211449 34.0963539 -130.01203918 29.59855652 C-129.99060382 20.77688387 -129.95647781 11.95530933 -129.91438293 3.13371277 C-125.77130123 1.1555671 -122.38601807 0.87098873 -117.81672668 0.84318542 C-116.77429306 0.83310959 -116.77429306 0.83310959 -115.71080017 0.8228302 C-113.4244208 0.80390557 -111.13833564 0.79992932 -108.85188293 0.79777527 C-107.25674826 0.79134509 -105.66161476 0.78461657 -104.06648254 0.77760315 C-100.72766891 0.76564543 -97.38895865 0.76192093 -94.05012512 0.7631073 C-89.77610403 0.76331078 -85.50274572 0.73597291 -81.22888184 0.70156288 C-77.93628402 0.67930895 -74.64384635 0.67526923 -71.35118103 0.67632675 C-69.77553516 0.6739699 -68.19988494 0.66514151 -66.62431335 0.64966202 C-64.41975065 0.63002477 -62.21662594 0.6358288 -60.01203918 0.64787292 C-58.13270691 0.64359787 -58.13270691 0.64359787 -56.21540833 0.63923645 C-52.3306157 1.22115804 -50.75008403 2.49204377 -47.91438293 5.13371277 C-46.92438293 5.62871277 -46.92438293 5.62871277 -45.91438293 6.13371277 C-45.41938293 7.61871277 -45.41938293 7.61871277 -44.91438293 9.13371277 C-43.92438293 9.62871277 -43.92438293 9.62871277 -42.91438293 10.13371277 C-42.41938293 11.61871277 -42.41938293 11.61871277 -41.91438293 13.13371277 C-41.11000793 13.91746277 -40.30563293 14.70121277 -39.47688293 15.50871277 C-36.92104574 18.12688745 -36.02361166 19.72070132 -34.91438293 23.13371277 C-34.04983856 25.83837019 -34.04983856 25.83837019 -32.91438293 28.13371277 C-31.42938293 28.62871277 -31.42938293 28.62871277 -29.91438293 29.13371277 C-28.56282043 30.84074402 -28.56282043 30.84074402 -27.28938293 32.94621277 C-26.86399231 33.63328308 -26.43860168 34.32035339 -26.00032043 35.02824402 C-24.91438293 37.13371277 -24.91438293 37.13371277 -24.39094543 39.33293152 C-24.23367981 39.92718933 -24.07641418 40.52144714 -23.91438293 41.13371277 C-23.25438293 41.46371277 -22.59438293 41.79371277 -21.91438293 42.13371277 C-21.72875793 43.03090027 -21.72875793 43.03090027 -21.53938293 43.94621277 C-20.70859173 46.85398199 -19.06848656 48.04296513 -16.91438293 50.13371277 C-13.91438293 54.63371277 -13.91438293 54.63371277 -13.91438293 57.13371277 C-13.25438293 56.98933777 -12.59438293 56.84496277 -11.91438293 56.69621277 C-10.92438293 56.51058777 -9.93438293 56.32496277 -8.91438293 56.13371277 C-7.63563293 55.88621277 -6.35688293 55.63871277 -5.03938293 55.38371277 C-1.62977015 55.02480616 1.25322931 55.17173205 4.41374207 56.71574402 C8.54715968 60.22142298 11.33675701 66.13296149 12.63639832 71.34074402 C13.00938878 73.36090739 13.00938878 73.36090739 14.89811707 75.38371277 C17.92620584 79.19045295 20.4731331 83.47308243 21.57389832 88.25480652 C21.97999519 90.35905384 21.97999519 90.35905384 24.08561707 92.13371277 C25.68351057 87.1802429 24.36868521 83.00088862 23.08561707 78.13371277 C22.42561707 78.13371277 21.76561707 78.13371277 21.08561707 78.13371277 C21.02503113 77.57683777 20.96444519 77.01996277 20.90202332 76.44621277 C20.72699303 74.85209081 20.54839312 73.25835811 20.36686707 71.66496277 C20.18647445 70.04142919 20.01866962 68.41641866 19.86686707 66.78996277 C19.67476304 64.89636596 19.38763167 63.01291473 19.08561707 61.13371277 C18.42561707 60.80371277 17.76561707 60.47371277 17.08561707 60.13371277 C17.08561707 58.15371277 17.08561707 56.17371277 17.08561707 54.13371277 C16.49393738 54.15691589 15.90225769 54.18011902 15.29264832 54.20402527 C6.592278 54.40272867 6.592278 54.40272867 3.08561707 52.13371277 C0.67112397 48.38708556 -0.30697088 45.58304282 0.08561707 41.13371277 C-0.57438293 41.13371277 -1.23438293 41.13371277 -1.91438293 41.13371277 C-3.36225704 38.04491467 -4.07721688 35.31174307 -4.41438293 31.94621277 C-4.52252664 28.11946563 -4.52252664 28.11946563 -6.91438293 26.13371277 C-7.40938293 24.64871277 -7.40938293 24.64871277 -7.91438293 23.13371277 C-8.40938293 22.14371277 -8.40938293 22.14371277 -8.91438293 21.13371277 C-9.40938293 19.64871277 -9.40938293 19.64871277 -9.91438293 18.13371277 C-10.40938293 17.14371277 -10.40938293 17.14371277 -10.91438293 16.13371277 C-11.91935146 13.1188072 -12.01773596 11.09189585 -11.97688293 7.94621277 C-11.9678595 7.04515808 -11.95883606 6.14410339 -11.94953918 5.21574402 C-11.93793762 4.52867371 -11.92633606 3.84160339 -11.91438293 3.13371277 C-11.13063293 2.82433777 -10.34688293 2.51496277 -9.53938293 2.19621277 C-5.93478455 0.73720866 -3.92703654 0.00726326 0 0 Z M-2.91438293 8.13371277 C-1.14355816 14.036462 0.47002276 19.40650774 2.78483582 25.01652527 C3.51476746 26.79543152 3.51476746 26.79543152 4.25944519 28.61027527 C5.00871277 30.41625183 5.00871277 30.41625183 5.77311707 32.25871277 C6.2898272 33.51374247 6.80610614 34.76894979 7.32194519 36.02433777 C8.57229154 39.06256254 9.82692911 42.09893657 11.08561707 45.13371277 C15.07768811 44.31283236 17.71672603 42.40405238 21.08561707 40.13371277 C21.74561707 40.13371277 22.40561707 40.13371277 23.08561707 40.13371277 C28.30432818 62.20823617 33.44983474 84.29878511 38.53326416 106.40484619 C39.61541567 111.10610736 40.70877021 115.80457121 41.81217957 120.50090027 C45.20891098 134.98895631 48.2620203 149.5230208 51.08561707 164.13371277 C43.95365307 150.87794513 36.82657256 137.6223168 29.89811707 124.25871277 C25.60051499 115.97237412 21.17824951 107.76374676 16.6771698 99.58634949 C12.0582718 91.1620016 7.64251174 82.63574034 3.27336121 74.07951355 C2.75507751 73.07130554 2.23679382 72.06309753 1.70280457 71.02433777 C1.24502625 70.12747253 0.78724792 69.2306073 0.31559753 68.30656433 C-0.85235152 66.01772864 -0.85235152 66.01772864 -2.91438293 64.13371277 C-6.77730365 64.49565594 -9.81342592 65.92121512 -13.22688293 67.69621277 C-14.10989075 68.15125183 -14.99289856 68.60629089 -15.90266418 69.07511902 C-16.89846497 69.59912292 -16.89846497 69.59912292 -17.91438293 70.13371277 C-18.18589172 69.40877625 -18.45740051 68.68383972 -18.73713684 67.93693542 C-19.8854204 65.20267749 -21.20371909 62.8092799 -22.75032043 60.28215027 C-23.31396301 59.35773132 -23.87760559 58.43331238 -24.45832825 57.48088074 C-25.06257629 56.50006531 -25.66682434 55.51924988 -26.28938293 54.50871277 C-26.91425598 53.49051453 -27.53912903 52.47231628 -28.18293762 51.42326355 C-30.08883082 48.32389288 -32.00149402 45.22876904 -33.91438293 42.13371277 C-34.46577942 41.23523621 -35.0171759 40.33675964 -35.58528137 39.41105652 C-45.10365245 23.42555943 -45.10365245 23.42555943 -56.91438293 9.13371277 C-58.90870023 9.03966135 -60.90637836 9.01628027 -62.90290833 9.02018738 C-64.20216248 9.02030823 -65.50141663 9.02042908 -66.84004211 9.02055359 C-68.23070829 9.02559007 -69.62137399 9.0307567 -71.01203918 9.03605652 C-72.2691571 9.0370636 -73.52627502 9.03807068 -74.82148743 9.03910828 C-79.53996181 9.04436002 -84.25842324 9.05832111 -88.97688293 9.07121277 C-104.78594543 9.10215027 -104.78594543 9.10215027 -120.91438293 9.13371277 C-120.91438293 30.58371277 -120.91438293 52.03371277 -120.91438293 74.13371277 C-115.96438293 74.13371277 -111.01438293 74.13371277 -105.91438293 74.13371277 C-105.91438293 103.50371277 -105.91438293 132.87371277 -105.91438293 163.13371277 C-110.86438293 163.13371277 -115.81438293 163.13371277 -120.91438293 163.13371277 C-120.91438293 183.92371277 -120.91438293 204.71371277 -120.91438293 226.13371277 C-89.56438293 226.13371277 -58.21438293 226.13371277 -25.91438293 226.13371277 C-25.91438293 205.34371277 -25.91438293 184.55371277 -25.91438293 163.13371277 C-30.20438293 163.13371277 -34.49438293 163.13371277 -38.91438293 163.13371277 C-38.91438293 149.27371277 -38.91438293 135.41371277 -38.91438293 121.13371277 C-38.25438293 121.13371277 -37.59438293 121.13371277 -36.91438293 121.13371277 C-36.64142395 121.8653363 -36.36846497 122.59695984 -36.0872345 123.35075378 C-34.96918217 126.00368435 -33.7057265 128.24548832 -32.14875793 130.66105652 C-31.59575012 131.52408386 -31.04274231 132.38711121 -30.47297668 133.27629089 C-29.87614075 134.19861511 -29.27930481 135.12093933 -28.66438293 136.07121277 C-27.38822975 138.05942244 -26.11219124 140.04770573 -24.83625793 142.03605652 C-24.18334778 143.05038757 -23.53043762 144.06471863 -22.85774231 145.10978699 C-19.86022535 149.77401375 -16.88782693 154.4541184 -13.91438293 159.13371277 C-12.74785339 160.96713336 -11.5811863 162.80046643 -10.41438293 164.63371277 C-0.99901835 179.42928569 8.41634623 194.2248586 17.83171082 209.02043152 C18.35119293 209.79820953 18.87067505 210.57598755 19.40589905 211.37733459 C21.08561707 214.13371277 21.08561707 214.13371277 22.24153137 217.00154114 C23.82256765 220.46900657 25.21173528 222.60190283 28.08561707 225.13371277 C34.32630883 227.17898945 41.3343756 226.40853498 47.80046082 226.20793152 C49.74097273 226.18739952 51.68154189 226.1717488 53.62213135 226.1607666 C58.71509417 226.11888515 63.80457247 226.01095021 68.89616394 225.88902283 C75.01288585 225.75637764 81.13077719 225.70614656 87.24852753 225.64203644 C96.52997624 225.53557561 105.80378976 225.32479218 115.08561707 225.13371277 C115.08561707 204.67371277 115.08561707 184.21371277 115.08561707 163.13371277 C110.13561707 163.13371277 105.18561707 163.13371277 100.08561707 163.13371277 C100.08561707 133.10371277 100.08561707 103.07371277 100.08561707 72.13371277 C105.03561707 72.13371277 109.98561707 72.13371277 115.08561707 72.13371277 C115.08561707 51.01371277 115.08561707 29.89371277 115.08561707 8.13371277 C76.14561707 8.13371277 37.20561707 8.13371277 -2.91438293 8.13371277 Z M-2.91438293 34.13371277 C-1.91438293 36.13371277 -1.91438293 36.13371277 -1.91438293 36.13371277 Z M1.08561707 44.13371277 C2.08561707 46.13371277 2.08561707 46.13371277 2.08561707 46.13371277 Z M3.08561707 48.13371277 C4.08561707 50.13371277 4.08561707 50.13371277 4.08561707 50.13371277 Z M21.08561707 70.13371277 C22.08561707 73.13371277 22.08561707 73.13371277 22.08561707 73.13371277 Z M109.08561707 83.13371277 C109.08561707 105.90371277 109.08561707 128.67371277 109.08561707 152.13371277 C109.41561707 152.13371277 109.74561707 152.13371277 110.08561707 152.13371277 C110.08561707 129.36371277 110.08561707 106.59371277 110.08561707 83.13371277 C109.75561707 83.13371277 109.42561707 83.13371277 109.08561707 83.13371277 Z M-114.91438293 85.13371277 C-114.91438293 107.57371277 -114.91438293 130.01371277 -114.91438293 153.13371277 C-114.58438293 153.13371277 -114.25438293 153.13371277 -113.91438293 153.13371277 C-113.91438293 130.69371277 -113.91438293 108.25371277 -113.91438293 85.13371277 C-114.24438293 85.13371277 -114.57438293 85.13371277 -114.91438293 85.13371277 Z M26.08561707 91.13371277 C27.08561707 95.13371277 27.08561707 95.13371277 27.08561707 95.13371277 Z M27.08561707 95.13371277 C28.08561707 99.13371277 28.08561707 99.13371277 28.08561707 99.13371277 Z M28.08561707 100.13371277 C27.75561707 101.12371277 27.42561707 102.11371277 27.08561707 103.13371277 C27.74561707 103.13371277 28.40561707 103.13371277 29.08561707 103.13371277 C28.75561707 102.14371277 28.42561707 101.15371277 28.08561707 100.13371277 Z " fill="#6ABB2C" transform="translate(160.9143829345703,40.86628723144531)"/>
<path d="M0 0 C1.03887863 -0.00426498 2.07775726 -0.00852997 3.14811707 -0.01292419 C4.29256287 -0.01247101 5.43700867 -0.01201782 6.61613464 -0.0115509 C8.41868965 -0.01658882 8.41868965 -0.01658882 10.25765991 -0.02172852 C13.55944405 -0.02961689 16.86116531 -0.03290707 20.16295457 -0.0335443 C22.91881545 -0.03449307 25.67467027 -0.03817114 28.43052882 -0.0417164 C34.93380679 -0.04986518 41.43707091 -0.05230031 47.94035339 -0.05158997 C54.6477129 -0.05098957 61.35499188 -0.06153267 68.06233102 -0.07733363 C73.82036747 -0.09041466 79.57837763 -0.0957736 85.33642882 -0.09513456 C88.77558227 -0.09487966 92.21466423 -0.09772585 95.65380287 -0.10831261 C99.49153911 -0.1198031 103.32916525 -0.11524329 107.16691589 -0.10920715 C108.87447556 -0.11763641 108.87447556 -0.11763641 110.61653137 -0.12623596 C112.18753853 -0.11994423 112.18753853 -0.11994423 113.7902832 -0.11352539 C114.69749524 -0.11407016 115.60470728 -0.11461493 116.53941059 -0.1151762 C119.35659248 0.16020033 121.51864059 0.96853893 124.08561707 2.13371277 C124.17834603 11.56531077 124.24939654 20.99675157 124.29286575 30.42870617 C124.31373013 34.80848493 124.34202642 39.18795154 124.38737488 43.56755066 C124.43087419 47.79507828 124.45476283 52.02230588 124.46512604 56.25004005 C124.47251013 57.86199478 124.48692973 59.4739333 124.50853729 61.08576012 C124.53762684 63.34583742 124.54157094 65.60467919 124.53971863 67.86491394 C124.54860107 69.15064804 124.55748352 70.43638214 124.56663513 71.76107788 C123.87526644 76.60857598 121.43560435 78.78372548 118.08561707 82.13371277 C118.08561707 82.46371277 118.08561707 82.79371277 118.08561707 83.13371277 C115.77561707 83.13371277 113.46561707 83.13371277 111.08561707 83.13371277 C111.08561707 105.90371277 111.08561707 128.67371277 111.08561707 152.13371277 C113.39561707 152.13371277 115.70561707 152.13371277 118.08561707 152.13371277 C118.08561707 152.79371277 118.08561707 153.45371277 118.08561707 154.13371277 C120.35838457 155.62895455 122.65361136 156.91770992 125.08561707 158.13371277 C124.75561707 182.22371277 124.42561707 206.31371277 124.08561707 231.13371277 C118.6230211 233.86501075 114.56752796 234.2866946 108.57853699 234.29484558 C107.70991531 234.29981049 106.84129364 234.30477539 105.9463501 234.30989075 C103.06958731 234.32450873 100.19287966 234.33131393 97.31608582 234.33683777 C95.31692503 234.34258971 93.31776427 234.34834744 91.31860352 234.35411072 C87.12464643 234.3646198 82.93070851 234.37046301 78.73674011 234.37394714 C73.36658144 234.37943032 67.99667652 234.40345503 62.6265974 234.4319191 C58.49587264 234.45055687 54.36520884 234.4557517 50.23444557 234.45728302 C48.25492784 234.46030772 46.27541113 234.46833008 44.29593468 234.4814682 C41.52405456 234.49855167 38.75279236 234.49664276 35.98088074 234.49015808 C35.16559906 234.49937286 34.35031738 234.50858765 33.5103302 234.51808167 C27.64447593 234.47516466 23.56615562 233.21993281 18.97233582 229.35636902 C16.63649194 226.6046192 14.74875769 223.65792856 12.89811707 220.57121277 C12.54298035 219.9943573 12.18784363 219.41750183 11.82194519 218.82316589 C10.27473575 216.27775681 9.03112909 213.97024885 8.08561707 211.13371277 C7.09916865 210.12034239 6.09755516 209.12163042 5.08561707 208.13371277 C4.1589825 206.80392758 3.27074158 205.44690608 2.41374207 204.07121277 C1.91358582 203.27328308 1.41342957 202.47535339 0.89811707 201.65324402 C0.38249207 200.82179871 -0.13313293 199.99035339 -0.66438293 199.13371277 C-1.67977269 197.50856576 -2.6954 195.88356716 -3.71125793 194.25871277 C-4.76828918 192.56746277 -5.82532043 190.87621277 -6.91438293 189.13371277 C-9.22438293 185.50371277 -11.53438293 181.87371277 -13.91438293 178.13371277 C-14.24438293 192.65371277 -14.57438293 207.17371277 -14.91438293 222.13371277 C-15.57438293 221.80371277 -16.23438293 221.47371277 -16.91438293 221.13371277 C-16.91438293 224.43371277 -16.91438293 227.73371277 -16.91438293 231.13371277 C-21.30229769 233.61541653 -24.6578868 234.56745749 -29.68074036 234.81291199 C-30.32741008 234.84599897 -30.9740798 234.87908596 -31.64034557 234.91317558 C-39.63965155 235.28236074 -47.64670771 235.27822573 -55.65266418 235.26652527 C-57.31120823 235.26720131 -58.96975218 235.26817382 -60.6282959 235.26942444 C-64.07466085 235.27088525 -67.52099959 235.26879818 -70.96736145 235.26408386 C-75.35917635 235.25836495 -79.75093039 235.26168953 -84.14274311 235.26765633 C-87.55645193 235.27128675 -90.97014655 235.27011237 -94.38385582 235.26752853 C-96.00279434 235.26686729 -97.6217342 235.26765922 -99.24067116 235.27000809 C-121.01192743 235.29469497 -121.01192743 235.29469497 -128.91438293 232.13371277 C-128.91438293 207.38371277 -128.91438293 182.63371277 -128.91438293 157.13371277 C-126.43938293 156.14371277 -126.43938293 156.14371277 -123.91438293 155.13371277 C-123.91438293 154.47371277 -123.91438293 153.81371277 -123.91438293 153.13371277 C-121.27438293 153.13371277 -118.63438293 153.13371277 -115.91438293 153.13371277 C-115.91438293 130.69371277 -115.91438293 108.25371277 -115.91438293 85.13371277 C-117.23438293 84.80371277 -118.55438293 84.47371277 -119.91438293 84.13371277 C-119.91438293 83.80371277 -119.91438293 83.47371277 -119.91438293 83.13371277 C-121.19313293 83.05121277 -122.47188293 82.96871277 -123.78938293 82.88371277 C-125.96907043 82.74308777 -125.96907043 82.74308777 -127.91438293 82.13371277 C-130.38627421 78.60820057 -130.18474915 74.93283445 -130.14143372 70.79484558 C-130.14172577 70.06274368 -130.14201782 69.33064178 -130.14231873 68.57635498 C-130.14092841 66.16306088 -130.12538142 63.75007776 -130.10969543 61.33683777 C-130.10596424 59.66103789 -130.10311777 57.98523583 -130.10112 56.30943298 C-130.0934919 51.90352838 -130.07385049 47.49775609 -130.05171204 43.09190369 C-130.03123586 38.5941395 -130.02211449 34.0963539 -130.01203918 29.59855652 C-129.99060382 20.77688387 -129.95647781 11.95530933 -129.91438293 3.13371277 C-125.77130123 1.1555671 -122.38601807 0.87098873 -117.81672668 0.84318542 C-116.77429306 0.83310959 -116.77429306 0.83310959 -115.71080017 0.8228302 C-113.4244208 0.80390557 -111.13833564 0.79992932 -108.85188293 0.79777527 C-107.25674826 0.79134509 -105.66161476 0.78461657 -104.06648254 0.77760315 C-100.72766891 0.76564543 -97.38895865 0.76192093 -94.05012512 0.7631073 C-89.77610403 0.76331078 -85.50274572 0.73597291 -81.22888184 0.70156288 C-77.93628402 0.67930895 -74.64384635 0.67526923 -71.35118103 0.67632675 C-69.77553516 0.6739699 -68.19988494 0.66514151 -66.62431335 0.64966202 C-64.41975065 0.63002477 -62.21662594 0.6358288 -60.01203918 0.64787292 C-58.13270691 0.64359787 -58.13270691 0.64359787 -56.21540833 0.63923645 C-52.3306157 1.22115804 -50.75008403 2.49204377 -47.91438293 5.13371277 C-46.92438293 5.62871277 -46.92438293 5.62871277 -45.91438293 6.13371277 C-45.41938293 7.61871277 -45.41938293 7.61871277 -44.91438293 9.13371277 C-43.92438293 9.62871277 -43.92438293 9.62871277 -42.91438293 10.13371277 C-42.41938293 11.61871277 -42.41938293 11.61871277 -41.91438293 13.13371277 C-41.11000793 13.91746277 -40.30563293 14.70121277 -39.47688293 15.50871277 C-36.92104574 18.12688745 -36.02361166 19.72070132 -34.91438293 23.13371277 C-34.04983856 25.83837019 -34.04983856 25.83837019 -32.91438293 28.13371277 C-31.42938293 28.62871277 -31.42938293 28.62871277 -29.91438293 29.13371277 C-28.56282043 30.84074402 -28.56282043 30.84074402 -27.28938293 32.94621277 C-26.86399231 33.63328308 -26.43860168 34.32035339 -26.00032043 35.02824402 C-24.91438293 37.13371277 -24.91438293 37.13371277 -24.39094543 39.33293152 C-24.23367981 39.92718933 -24.07641418 40.52144714 -23.91438293 41.13371277 C-23.25438293 41.46371277 -22.59438293 41.79371277 -21.91438293 42.13371277 C-21.72875793 43.03090027 -21.72875793 43.03090027 -21.53938293 43.94621277 C-20.70859173 46.85398199 -19.06848656 48.04296513 -16.91438293 50.13371277 C-13.91438293 54.63371277 -13.91438293 54.63371277 -13.91438293 57.13371277 C-13.25438293 56.98933777 -12.59438293 56.84496277 -11.91438293 56.69621277 C-10.92438293 56.51058777 -9.93438293 56.32496277 -8.91438293 56.13371277 C-7.63563293 55.88621277 -6.35688293 55.63871277 -5.03938293 55.38371277 C-1.62977015 55.02480616 1.25322931 55.17173205 4.41374207 56.71574402 C8.54715968 60.22142298 11.33675701 66.13296149 12.63639832 71.34074402 C13.00938878 73.36090739 13.00938878 73.36090739 14.89811707 75.38371277 C17.92620584 79.19045295 20.4731331 83.47308243 21.57389832 88.25480652 C21.97999519 90.35905384 21.97999519 90.35905384 24.08561707 92.13371277 C25.68351057 87.1802429 24.36868521 83.00088862 23.08561707 78.13371277 C22.42561707 78.13371277 21.76561707 78.13371277 21.08561707 78.13371277 C21.02503113 77.57683777 20.96444519 77.01996277 20.90202332 76.44621277 C20.72699303 74.85209081 20.54839312 73.25835811 20.36686707 71.66496277 C20.18647445 70.04142919 20.01866962 68.41641866 19.86686707 66.78996277 C19.67476304 64.89636596 19.38763167 63.01291473 19.08561707 61.13371277 C18.42561707 60.80371277 17.76561707 60.47371277 17.08561707 60.13371277 C17.08561707 58.15371277 17.08561707 56.17371277 17.08561707 54.13371277 C16.49393738 54.15691589 15.90225769 54.18011902 15.29264832 54.20402527 C6.592278 54.40272867 6.592278 54.40272867 3.08561707 52.13371277 C0.67112397 48.38708556 -0.30697088 45.58304282 0.08561707 41.13371277 C-0.57438293 41.13371277 -1.23438293 41.13371277 -1.91438293 41.13371277 C-3.36225704 38.04491467 -4.07721688 35.31174307 -4.41438293 31.94621277 C-4.52252664 28.11946563 -4.52252664 28.11946563 -6.91438293 26.13371277 C-7.40938293 24.64871277 -7.40938293 24.64871277 -7.91438293 23.13371277 C-8.40938293 22.14371277 -8.40938293 22.14371277 -8.91438293 21.13371277 C-9.40938293 19.64871277 -9.40938293 19.64871277 -9.91438293 18.13371277 C-10.40938293 17.14371277 -10.40938293 17.14371277 -10.91438293 16.13371277 C-11.91935146 13.1188072 -12.01773596 11.09189585 -11.97688293 7.94621277 C-11.9678595 7.04515808 -11.95883606 6.14410339 -11.94953918 5.21574402 C-11.93793762 4.52867371 -11.92633606 3.84160339 -11.91438293 3.13371277 C-11.13063293 2.82433777 -10.34688293 2.51496277 -9.53938293 2.19621277 C-5.93478455 0.73720866 -3.92703654 0.00726326 0 0 Z M-6.73724461 5.48498249 C-8.19970505 7.17066105 -8.19970505 7.17066105 -7.76545715 9.88761902 C-6.84083379 13.41423758 -5.66007002 16.68904371 -4.29719543 20.07121277 C-4.03937286 20.71437439 -3.78155029 21.35753601 -3.51591492 22.02018738 C-2.97238837 23.37265458 -2.4259628 24.72395999 -1.87678528 26.07414246 C-1.04282784 28.1252401 -0.21809951 30.17985892 0.60514832 32.23527527 C3.80079727 41.83341228 3.80079727 41.83341228 9.08561707 50.13371277 C13.75039791 50.55778375 16.27025713 49.82690802 20.08561707 47.13371277 C21.17024711 52.00628936 22.25066924 56.87976225 23.32609558 61.75437927 C27.05833977 78.66517969 30.8340383 95.56220566 34.82658386 112.41374207 C36.37344592 118.96551276 37.82394785 125.52076099 39.08561707 132.13371277 C38.63347839 131.24925476 38.18133972 130.36479675 37.71549988 129.45353699 C29.54844089 113.48837778 21.34995934 97.55577563 12.67936707 81.85636902 C10.97877394 78.77686576 9.3111497 75.6838216 7.67936707 72.56730652 C7.1274469 71.51470642 7.1274469 71.51470642 6.56437683 70.44084167 C5.60741206 68.60768758 4.65675426 66.77124467 3.70671082 64.93449402 C2.31802443 62.5352455 1.25096853 60.83214209 -0.91438293 59.13371277 C-6.84035108 58.00495693 -11.06813324 61.11826852 -15.91438293 64.13371277 C-16.17469299 63.42593689 -16.43500305 62.71816101 -16.70320129 61.98893738 C-17.99731905 58.9382002 -19.55002038 56.26792575 -21.29328918 53.45011902 C-21.96271545 52.36440613 -22.63214172 51.27869324 -23.32185364 50.16007996 C-24.03985543 49.00524529 -24.75820515 47.85062687 -25.47688293 46.69621277 C-26.21160422 45.51170581 -26.94622297 44.32713524 -27.68074036 43.14250183 C-29.11696339 40.82861689 -30.55631838 38.51672497 -31.99836731 36.20646667 C-33.86365214 33.21507079 -35.71744226 30.21687703 -37.56184387 27.21257019 C-38.5786834 25.61635374 -39.65155696 24.0561113 -40.73323059 22.50309753 C-42.33382464 20.15928004 -43.33109895 18.16505931 -44.47932434 15.49601746 C-46.74267369 10.87440126 -49.28308916 7.54490206 -53.91438293 5.13371277 C-64.68544139 2.784359 -76.0583878 3.66387686 -87.00245667 4.05583191 C-90.31451222 4.16007657 -93.62609424 4.20359543 -96.93945408 4.24407959 C-103.77269214 4.32835349 -110.60625872 4.45066257 -117.43611145 4.68449402 C-119.24499596 4.74117249 -119.24499596 4.74117249 -121.09042358 4.79899597 C-124.04737421 4.85406236 -124.04737421 4.85406236 -125.91438293 7.13371277 C-126.22924413 10.10795707 -126.22924413 10.10795707 -126.18904114 13.6471405 C-126.19415207 14.31561005 -126.199263 14.98407959 -126.20452881 15.67280579 C-126.21845566 17.88772985 -126.21746574 20.10234381 -126.21516418 22.31730652 C-126.21904955 23.8542594 -126.22338389 25.39121121 -126.22814941 26.92816162 C-126.23561835 30.15206887 -126.23531561 33.37586662 -126.23005676 36.59977722 C-126.22426246 40.73385701 -126.24118852 44.86748872 -126.26440144 49.00149441 C-126.27912471 52.17648953 -126.2800124 55.35137641 -126.27689171 58.52639961 C-126.27740568 60.05065358 -126.28265754 61.57491349 -126.29270363 63.09913445 C-126.30502346 65.23001688 -126.29830412 67.36002239 -126.28669739 69.4908905 C-126.28732681 70.70397385 -126.28795624 71.91705719 -126.28860474 73.16690063 C-126.17830513 76.48284802 -126.17830513 76.48284802 -122.91438293 79.13371277 C-118.62438293 79.13371277 -114.33438293 79.13371277 -109.91438293 79.13371277 C-109.91438293 105.53371277 -109.91438293 131.93371277 -109.91438293 159.13371277 C-114.20438293 159.13371277 -118.49438293 159.13371277 -122.91438293 159.13371277 C-125.69099542 161.91032525 -125.17381334 163.57426839 -125.18904114 167.46354675 C-125.19415207 168.11250916 -125.199263 168.76147156 -125.20452881 169.43009949 C-125.21845408 171.58009507 -125.21746586 173.72977114 -125.21516418 175.87980652 C-125.21904965 177.37191894 -125.22338401 178.86403026 -125.22814941 180.35614014 C-125.23561802 183.48589155 -125.23531586 186.61553017 -125.23005676 189.74528503 C-125.2242626 193.75830176 -125.24118829 197.77085688 -125.26440144 201.78379726 C-125.27912596 204.8661469 -125.28001223 207.94838505 -125.27689171 211.03076363 C-125.27740562 212.51036048 -125.2826564 213.98996346 -125.29270363 215.46952629 C-125.30502591 217.53815151 -125.29830279 219.60587374 -125.28669739 221.67448425 C-125.28732681 222.85203781 -125.28795624 224.02959137 -125.28860474 225.24282837 C-124.86485298 228.51633447 -124.45116953 229.160898 -121.91438293 231.13371277 C-120.00993492 231.58403029 -120.00993492 231.58403029 -117.89804077 231.52139282 C-117.08352448 231.53129745 -116.26900818 231.54120209 -115.42980957 231.55140686 C-114.53985794 231.54690521 -113.64990631 231.54240356 -112.73298645 231.5377655 C-111.7928772 231.54462875 -110.85276794 231.551492 -109.88417053 231.55856323 C-106.77039063 231.57689423 -103.65711157 231.57298466 -100.54328918 231.56730652 C-98.38239375 231.57186537 -96.22149977 231.57717005 -94.06060791 231.58319092 C-89.52865209 231.59213448 -84.99687237 231.58968479 -80.46492004 231.57975769 C-74.65277107 231.56826801 -68.84122963 231.58847351 -63.0291605 231.61767483 C-58.56564462 231.63600774 -54.10227508 231.63575013 -49.638731 231.63003731 C-47.49568263 231.62988373 -45.35262456 231.63595812 -43.20961189 231.64832878 C-40.21440996 231.66318139 -37.22034009 231.65260351 -34.22517395 231.63542175 C-33.33724655 231.64508972 -32.44931915 231.65475769 -31.53448486 231.66471863 C-27.78494939 231.61960445 -25.57133853 231.55285731 -22.36381531 229.50642395 C-20.46195056 226.39308397 -20.41319833 224.312093 -20.41267395 220.66862488 C-20.39860252 218.70154823 -20.39860252 218.70154823 -20.38424683 216.69473267 C-20.39472403 215.26683397 -20.4060929 213.83894157 -20.41828918 212.41105652 C-20.41813418 210.94422331 -20.41664503 209.47738969 -20.41387939 208.01055908 C-20.41249604 204.93969063 -20.42504356 201.86928961 -20.4478302 198.79850769 C-20.47624035 194.86171681 -20.4734702 190.92570097 -20.46074009 186.9888525 C-20.45378717 183.96136855 -20.46156721 180.93406391 -20.47399712 177.90660286 C-20.47851367 176.45493317 -20.47884663 175.00324424 -20.47493172 173.5515728 C-20.47202301 171.52415166 -20.49067392 169.49673407 -20.5103302 167.46940613 C-20.51843468 165.73877174 -20.51843468 165.73877174 -20.52670288 163.97317505 C-20.6723004 160.77084436 -20.6723004 160.77084436 -23.91438293 158.13371277 C-27.21438293 158.13371277 -30.51438293 158.13371277 -33.91438293 158.13371277 C-33.58438293 151.53371277 -33.25438293 144.93371277 -32.91438293 138.13371277 C-1.41438293 187.63371277 -1.41438293 187.63371277 0.33805847 190.3881073 C1.49591218 192.20722197 2.65443256 194.02591248 3.81364441 195.84416199 C6.87096876 200.64163713 9.91375164 205.44760416 12.93717957 210.26652527 C13.56882019 211.26941589 14.20046082 212.27230652 14.85124207 213.30558777 C16.06125653 215.22737545 17.2672068 217.15173008 18.46842957 219.07902527 C19.01499207 219.94527527 19.56155457 220.81152527 20.12467957 221.70402527 C20.60114929 222.46473328 21.07761902 223.22544128 21.56852722 224.00920105 C23.33735249 226.48623958 24.65848367 228.25050983 27.08561707 230.13371277 C30.09802619 230.52308871 32.74285014 230.67081512 35.75382996 230.63542175 C36.62741653 230.64082474 37.50100311 230.64622772 38.40106201 230.65179443 C41.28714427 230.66429665 44.17223197 230.64778219 47.05827332 230.62980652 C49.06319226 230.62996146 51.06811152 230.63144959 53.07302856 230.63421631 C57.27372995 230.63560092 61.47409015 230.62303054 65.67472839 230.6002655 C71.06427468 230.5718625 76.45325475 230.57462237 81.84284306 230.58735561 C85.98206435 230.59430351 90.12115429 230.58653399 94.26035881 230.57409859 C96.24791905 230.56957672 98.23549335 230.56925368 100.22305489 230.57316399 C102.99793134 230.57606794 105.7720215 230.55960909 108.54679871 230.5377655 C109.37129517 230.54226715 110.19579163 230.5467688 111.04527283 230.55140686 C115.20579425 230.60530282 115.20579425 230.60530282 118.7966404 228.79016304 C120.8110982 226.20140464 120.45965993 223.90807448 120.45793152 220.67448425 C120.46158218 220.02376953 120.46523285 219.37305481 120.46899414 218.70262146 C120.47709623 216.55308383 120.46349483 214.40430081 120.44889832 212.25480652 C120.44837973 210.76172893 120.44889738 209.26865065 120.45040894 207.77557373 C120.45031923 204.64753518 120.43989277 201.51975447 120.42179871 198.39176941 C120.39909177 194.37763132 120.3985711 190.36386937 120.40531635 186.34968472 C120.40865364 183.26737104 120.40203116 180.1851435 120.39218712 177.10284615 C120.38833213 175.62243665 120.38718814 174.14201759 120.38877296 172.66160393 C120.38914282 170.5953982 120.37654719 168.52967949 120.36027527 166.46354675 C120.35566788 165.28678879 120.35106049 164.11003082 120.34631348 162.89761353 C120.36852433 159.99156588 120.36852433 159.99156588 118.08561707 158.13371277 C113.79561707 158.13371277 109.50561707 158.13371277 105.08561707 158.13371277 C105.08561707 131.40371277 105.08561707 104.67371277 105.08561707 77.13371277 C109.37561707 77.13371277 113.66561707 77.13371277 118.08561707 77.13371277 C120.89708828 74.32224155 120.33924985 72.54264108 120.34440613 68.60441589 C120.34791077 67.93434006 120.35141541 67.26426422 120.35502625 66.57388306 C120.36384439 64.35413825 120.3579943 62.13471094 120.35124207 59.91496277 C120.3525887 58.37561481 120.35452921 56.83626727 120.35704041 55.29692078 C120.35999177 52.0688116 120.35569368 48.84081301 120.34635925 45.61271667 C120.33496464 41.46965483 120.34152405 37.32685208 120.35350418 33.18379974 C120.36072248 30.00456277 120.35843501 26.82538749 120.3532486 23.64614868 C120.35191201 22.11828582 120.35356013 20.59041741 120.3582077 19.06256104 C120.36327253 16.92922577 120.35556376 14.79631332 120.34440613 12.66300964 C120.34281494 11.44770569 120.34122375 10.23240173 120.33958435 8.98027039 C120.38052775 6.00097589 120.38052775 6.00097589 118.08561707 4.13371277 C115.83715561 3.82676884 115.83715561 3.82676884 113.19573975 3.87301636 C112.16238495 3.86593155 111.12903015 3.85884674 110.06436157 3.85154724 C108.92612442 3.85402466 107.78788727 3.85650208 106.61515808 3.85905457 C105.41999573 3.85394363 104.22483337 3.8488327 102.99345398 3.84356689 C99.71037081 3.83202484 96.42744371 3.82960113 93.14434552 3.83213019 C90.40568674 3.8331982 87.66705138 3.8283209 84.9283976 3.82352477 C78.46833518 3.81242038 72.0083309 3.81199731 65.54826355 3.81803894 C58.8794421 3.82407983 52.21083158 3.8117671 45.54204613 3.79046887 C39.82054883 3.77286656 34.09911875 3.76684935 28.37759537 3.77010661 C24.95859702 3.77192192 21.53974911 3.76925898 18.12077522 3.75539207 C14.30883994 3.74310758 10.4973975 3.7497717 6.68547058 3.76139832 C4.9811512 3.74993271 4.9811512 3.74993271 3.24240112 3.73823547 C2.2062265 3.74524979 1.17005188 3.7522641 0.10247803 3.75949097 C-1.25004389 3.75923935 -1.25004389 3.75923935 -2.62988949 3.75898266 C-4.97761593 3.96515758 -4.97761593 3.96515758 -6.73724461 5.48498249 Z M-2.91438293 34.13371277 C-1.91438293 36.13371277 -1.91438293 36.13371277 -1.91438293 36.13371277 Z M1.08561707 44.13371277 C2.08561707 46.13371277 2.08561707 46.13371277 2.08561707 46.13371277 Z M3.08561707 48.13371277 C4.08561707 50.13371277 4.08561707 50.13371277 4.08561707 50.13371277 Z M21.08561707 70.13371277 C22.08561707 73.13371277 22.08561707 73.13371277 22.08561707 73.13371277 Z M109.08561707 83.13371277 C109.08561707 105.90371277 109.08561707 128.67371277 109.08561707 152.13371277 C109.41561707 152.13371277 109.74561707 152.13371277 110.08561707 152.13371277 C110.08561707 129.36371277 110.08561707 106.59371277 110.08561707 83.13371277 C109.75561707 83.13371277 109.42561707 83.13371277 109.08561707 83.13371277 Z M-114.91438293 85.13371277 C-114.91438293 107.57371277 -114.91438293 130.01371277 -114.91438293 153.13371277 C-114.58438293 153.13371277 -114.25438293 153.13371277 -113.91438293 153.13371277 C-113.91438293 130.69371277 -113.91438293 108.25371277 -113.91438293 85.13371277 C-114.24438293 85.13371277 -114.57438293 85.13371277 -114.91438293 85.13371277 Z M26.08561707 91.13371277 C27.08561707 95.13371277 27.08561707 95.13371277 27.08561707 95.13371277 Z M27.08561707 95.13371277 C28.08561707 99.13371277 28.08561707 99.13371277 28.08561707 99.13371277 Z M28.08561707 100.13371277 C27.75561707 101.12371277 27.42561707 102.11371277 27.08561707 103.13371277 C27.74561707 103.13371277 28.40561707 103.13371277 29.08561707 103.13371277 C28.75561707 102.14371277 28.42561707 101.15371277 28.08561707 100.13371277 Z " fill="#F8FBF5" transform="translate(160.9143829345703,40.86628723144531)"/>
<path d="M0 0 C4.62 0 9.24 0 14 0 C14 0.33 14 0.66 14 1 C9.71 1 5.42 1 1 1 C1.99 2.98 1.99 2.98 3 5 C3.1802169 7.63618375 3.25286895 10.16353068 3.22705078 12.79785156 C3.22734283 13.57872131 3.22763489 14.35959106 3.22793579 15.16412354 C3.2265448 17.73973788 3.21099452 20.31506132 3.1953125 22.890625 C3.19158155 24.67852622 3.18873496 26.4664295 3.18673706 28.2543335 C3.17910707 32.95615297 3.159464 37.65784856 3.1373291 42.35961914 C3.11685704 47.15899988 3.10773243 51.95840067 3.09765625 56.7578125 C3.07621753 66.17192938 3.0420892 75.58595438 3 85 C4.48113281 84.96519531 4.48113281 84.96519531 5.9921875 84.9296875 C7.91417969 84.90261719 7.91417969 84.90261719 9.875 84.875 C11.15117187 84.85179687 12.42734375 84.82859375 13.7421875 84.8046875 C17 85 17 85 19 87 C19.26069641 89.76390076 19.26069641 89.76390076 19.2746582 93.32983398 C19.27976913 93.97879639 19.28488007 94.62775879 19.29014587 95.29638672 C19.30407115 97.4463823 19.30308292 99.59605837 19.30078125 101.74609375 C19.30466672 103.23820618 19.30900107 104.73031749 19.31376648 106.22242737 C19.32123508 109.35217878 19.32093293 112.4818174 19.31567383 115.61157227 C19.30987967 119.62458899 19.32680535 123.63714411 19.3500185 127.6500845 C19.36474302 130.73243413 19.36562929 133.81467229 19.36250877 136.89705086 C19.36302268 138.37664771 19.36827346 139.85625069 19.37832069 141.33581352 C19.39064297 143.40443874 19.38391985 145.47216097 19.37231445 147.54077148 C19.37294388 148.71832504 19.3735733 149.8958786 19.3742218 151.1091156 C18.95089773 154.37931778 18.52529641 155.02148541 16 157 C13.06084395 157.28069811 10.33608662 157.37872448 7.39770508 157.34057617 C6.51944565 157.34101425 5.64118622 157.34145233 4.73631287 157.34190369 C1.83049363 157.33981201 -1.07475018 157.31646306 -3.98046875 157.29296875 C-5.99400009 157.28737415 -8.00753551 157.28310341 -10.02107239 157.28010559 C-15.323021 157.26864616 -20.62472343 157.23916945 -25.92657471 157.20599365 C-31.33578155 157.17531647 -36.74502813 157.16160528 -42.15429688 157.14648438 C-52.76963947 157.11430088 -63.38479927 157.06309119 -74 157 C-74.33 156.34 -74.66 155.68 -75 155 C-71.2103922 152.4735948 -68.15797162 152.6931137 -63.76489258 152.68115234 C-62.50602486 152.66608391 -62.50602486 152.66608391 -61.22172546 152.65071106 C-58.44600107 152.6198049 -55.67037344 152.60282333 -52.89453125 152.5859375 C-50.97066918 152.56723183 -49.04681536 152.54765887 -47.12297058 152.5272522 C-42.05792094 152.47586153 -36.99284468 152.43627294 -31.92767334 152.39910889 C-25.85111835 152.35208133 -19.77469615 152.29045384 -13.69824982 152.23126221 C-4.46555327 152.14296545 4.76711673 152.07326155 14 152 C14.33 131.21 14.66 110.42 15 89 C10.05 89 5.1 89 0 89 C0 59.63 0 30.26 0 0 Z " fill="#6BBE28" transform="translate(262,114)"/>
<path d="M0 0 C0.66 0 1.32 0 2 0 C3.6509357 2.49039454 5.18101503 4.98569589 6.6875 7.5625 C11.10850577 14.96613742 15.70154181 22.23139563 20.4375 29.4375 C26.54535325 38.74763321 32.5318161 48.12532366 38.45800781 57.55175781 C41.27291871 62.02103053 44.10406656 66.47995419 46.9375 70.9375 C47.80411255 72.30225464 47.80411255 72.30225464 48.68823242 73.69458008 C51.68729014 78.40678843 54.71174944 83.10029788 57.77734375 87.76953125 C58.3813501 88.69064697 58.98535645 89.6117627 59.60766602 90.56079102 C60.76415551 92.32052742 61.92464777 94.07764134 63.08959961 95.83178711 C63.60401611 96.61432861 64.11843262 97.39687012 64.6484375 98.203125 C65.10395996 98.89051758 65.55948242 99.57791016 66.02880859 100.28613281 C67 102 67 102 67 104 C95.71 104 124.42 104 154 104 C154 104.33 154 104.66 154 105 C152.94399597 105.00808685 151.88799194 105.01617371 150.79998779 105.02450562 C140.85301231 105.10195657 130.90617379 105.18969326 120.95937729 105.28752708 C115.84550444 105.33749435 110.73165229 105.38382443 105.61767578 105.421875 C100.68333677 105.45872226 95.74917077 105.50508083 90.81497955 105.55806351 C88.93154177 105.5766104 87.04806689 105.59171727 85.16457367 105.60334396 C82.52848048 105.62020128 79.89278378 105.64923511 77.25683594 105.68115234 C76.08618843 105.68439262 76.08618843 105.68439262 74.89189148 105.68769836 C71.12207136 105.7460919 68.1991606 105.88711712 65 108 C61.75059565 104.09475257 58.97789507 100.02228603 56.25 95.75 C55.78392334 95.02474121 55.31784668 94.29948242 54.83764648 93.55224609 C53.22231142 91.03660733 51.61128566 88.51823413 50 86 C48.71501832 83.99728381 47.42985373 81.99468498 46.14453125 79.9921875 C39.59368954 69.77844154 33.06164641 59.55346471 26.60473633 49.2800293 C23.66729617 44.61385881 20.69588588 39.97069699 17.703125 35.33984375 C16.95825911 34.1849437 16.21346737 33.02999582 15.46875 31.875 C14.01001038 29.61267399 12.54563145 27.35434332 11.078125 25.09765625 C10.418125 24.07414062 9.758125 23.050625 9.078125 21.99609375 C8.18722168 20.62215454 8.18722168 20.62215454 7.27832031 19.22045898 C6 17 6 17 6 15 C4.68 15 3.36 15 2 15 C1.67 23.58 1.34 32.16 1 41 C4.96 41 8.92 41 13 41 C13 41.33 13 41.66 13 42 C8.71 42 4.42 42 0 42 C0 28.14 0 14.28 0 0 Z " fill="#68B730" transform="translate(122,162)"/>
<path d="M0 0 C0.66 0 1.32 0 2 0 C2.0462815 8.96192395 2.0818478 17.92380695 2.10362434 26.8858242 C2.11407446 31.04697253 2.12825592 35.20803926 2.15087891 39.36914062 C2.17256371 43.38266429 2.18455937 47.39610933 2.18975449 51.40968704 C2.19345811 52.94314436 2.20069011 54.47659724 2.21146011 56.01002121 C2.22591729 58.15309801 2.2279804 60.29584736 2.22705078 62.43896484 C2.231492 63.66030121 2.23593323 64.88163757 2.24050903 66.13998413 C2 69 2 69 0 71 C-4.29 71 -8.58 71 -13 71 C-13 97.73 -13 124.46 -13 152 C-13.33 152 -13.66 152 -14 152 C-14.00808685 151.00885696 -14.01617371 150.01771393 -14.02450562 148.99653625 C-14.10201031 139.65322829 -14.18976061 130.31006517 -14.28752708 120.9669466 C-14.33746022 116.163622 -14.38379059 111.36031908 -14.421875 106.55688477 C-14.45876539 101.92079244 -14.50513568 97.28488276 -14.55806351 92.64894676 C-14.57658748 90.88077182 -14.59170282 89.11255776 -14.60334396 87.34432411 C-14.62024059 84.86648505 -14.64928372 82.38906245 -14.68115234 79.91137695 C-14.68331253 79.18129425 -14.68547272 78.45121155 -14.68769836 77.69900513 C-14.75791028 73.42215896 -15.34989074 71.12527315 -17 67 C-17 96.37 -17 125.74 -17 156 C-12.05 156 -7.1 156 -2 156 C-2 176.79 -2 197.58 -2 219 C-2.33 219 -2.66 219 -3 219 C-3 198.54 -3 178.08 -3 157 C-7.95 157 -12.9 157 -18 157 C-18 126.97 -18 96.94 -18 66 C-13.05 66 -8.1 66 -3 66 C-3 44.88 -3 23.76 -3 2 C-2.67 2 -2.34 2 -2 2 C-1.67 22.46 -1.34 42.92 -1 64 C-0.67 42.88 -0.34 21.76 0 0 Z " fill="#63AB3B" transform="translate(279,47)"/>
<path d="M0 0 C3.44567907 1.14855969 3.80683806 1.7946649 5.69921875 4.74609375 C6.18583984 5.50083984 6.67246094 6.25558594 7.17382812 7.03320312 C7.67333984 7.82662109 8.17285156 8.62003906 8.6875 9.4375 C9.19861328 10.22705078 9.70972656 11.01660156 10.23632812 11.83007812 C14 17.72431993 14 17.72431993 14 20 C42.71 20 71.42 20 101 20 C101 20.33 101 20.66 101 21 C99.94399597 21.00808685 98.88799194 21.01617371 97.79998779 21.02450562 C87.85301231 21.10195657 77.90617379 21.18969326 67.95937729 21.28752708 C62.84550444 21.33749435 57.73165229 21.38382443 52.61767578 21.421875 C47.68333677 21.45872226 42.74917077 21.50508083 37.81497955 21.55806351 C35.93154177 21.5766104 34.04806689 21.59171727 32.16457367 21.60334396 C29.52848048 21.62020128 26.89278378 21.64923511 24.25683594 21.68115234 C23.08618843 21.68439262 23.08618843 21.68439262 21.89189148 21.68769836 C18.12207136 21.7460919 15.1991606 21.88711712 12 24 C8.82138978 20.14182484 5.94796024 16.16069369 3.1875 12 C2.55811523 11.09507812 2.55811523 11.09507812 1.91601562 10.171875 C0.00284807 7.27218117 -1.04749961 5.58556901 -0.76171875 2.0625 C-0.51035156 1.381875 -0.25898438 0.70125 0 0 Z " fill="#5CA536" transform="translate(175,246)"/>
<path d="M0 0 C40.92 0 81.84 0 124 0 C124 0.33 124 0.66 124 1 C83.08 1 42.16 1 0 1 C0 0.67 0 0.34 0 0 Z " fill="#FFFFFF" transform="translate(156,39)"/>
<path d="M0 0 C29.7 0 59.4 0 90 0 C90 0.33 90 0.66 90 1 C60.3 1 30.6 1 0 1 C0 0.67 0 0.34 0 0 Z " fill="#FFFFFF" transform="translate(188,276)"/>
<path d="M0 0 C25.41 0 50.82 0 77 0 C77 0.33 77 0.66 77 1 C51.59 1 26.18 1 0 1 C0 0.67 0 0.34 0 0 Z " fill="#FFFFFF" transform="translate(47,277)"/>
<path d="M0 0 C0.33 0 0.66 0 1 0 C1 3.3 1 6.6 1 10 C1.66 10 2.32 10 3 10 C3.05834353 13.22909006 3.09371115 16.45804338 3.125 19.6875 C3.15013672 21.05551758 3.15013672 21.05551758 3.17578125 22.45117188 C3.20936169 27.06848227 3.23556185 30.81932331 1 35 C0.67 35 0.34 35 0 35 C0 23.45 0 11.9 0 0 Z " fill="#68BE24" transform="translate(123,167)"/>
<path d="M0 0 C23.76 0 47.52 0 72 0 C72 0.33 72 0.66 72 1 C48.24 1 24.48 1 0 1 C0 0.67 0 0.34 0 0 Z " fill="#FFFFFF" transform="translate(36,40)"/>
<path d="M0 0 C0.33 0 0.66 0 1 0 C1 22.44 1 44.88 1 68 C0.67 68 0.34 68 0 68 C0 45.56 0 23.12 0 0 Z " fill="#FFFFFF" transform="translate(286,48)"/>
<path d="M0 0 C0.33 0 0.66 0 1 0 C1 22.44 1 44.88 1 68 C0.67 68 0.34 68 0 68 C0 45.56 0 23.12 0 0 Z " fill="#FFFFFF" transform="translate(29,48)"/>
<path d="M0 0 C0.33 0 0.66 0 1 0 C1 22.11 1 44.22 1 67 C0.67 67 0.34 67 0 67 C0 44.89 0 22.78 0 0 Z " fill="#FFFFFF" transform="translate(30,202)"/>
<path d="M0 0 C0.33 0 0.66 0 1 0 C1 21.78 1 43.56 1 66 C0.67 66 0.34 66 0 66 C0 44.22 0 22.44 0 0 Z " fill="#FFFFFF" transform="translate(286,202)"/>
<path d="M0 0 C0.66 0 1.32 0 2 0 C2 1.65 2 3.3 2 5 C1.01 5.33 0.02 5.66 -1 6 C-1.33 6.66 -1.66 7.32 -2 8 C-1.125 2.25 -1.125 2.25 0 0 Z " fill="#6FBE33" transform="translate(196,138)"/>
<path d="M0 0 C4.62 0 9.24 0 14 0 C14 0.33 14 0.66 14 1 C9.38 1 4.76 1 0 1 C0 0.67 0 0.34 0 0 Z " fill="#FFFFFF" transform="translate(124,276)"/>
<path d="M0 0 C3.3 0 6.6 0 10 0 C10 0.33 10 0.66 10 1 C6.7 1 3.4 1 0 1 C0 0.67 0 0.34 0 0 Z " fill="#FFFFFF" transform="translate(37,276)"/>
<path d="M0 0 C0.33 0.66 0.66 1.32 1 2 C-1.97 2 -4.94 2 -8 2 C-8 1.67 -8 1.34 -8 1 C-5.36 0.67 -2.72 0.34 0 0 Z " fill="#FFFFFF" transform="translate(177,95)"/>
<path d="M0 0 C0.33 0 0.66 0 1 0 C1 1.98 1 3.96 1 6 C0.67 6 0.34 6 0 6 C0 4.02 0 2.04 0 0 Z " fill="#FFFFFF" transform="translate(144,264)"/>
<path d="M0 0 C0.33 0 0.66 0 1 0 C1 1.65 1 3.3 1 5 C0.67 5 0.34 5 0 5 C0 3.35 0 1.7 0 0 Z " fill="#FFFFFF" transform="translate(183,119)"/>
<path d="M0 0 C1.65 0 3.3 0 5 0 C5 0.33 5 0.66 5 1 C3.35 1 1.7 1 0 1 C0 0.67 0 0.34 0 0 Z " fill="#FFFFFF" transform="translate(155,94)"/>
<path d="M0 0 C1 4 1 4 1 4 Z " fill="#FFFFFF" transform="translate(185,128)"/>
<path d="M0 0 C1 4 1 4 1 4 Z " fill="#FFFFFF" transform="translate(184,124)"/>
<path d="M0 0 C4 1 4 1 4 1 Z " fill="#FFFFFF" transform="translate(36,124)"/>
<path d="M0 0 C1 4 1 4 1 4 Z " fill="#FFFFFF" transform="translate(180,106)"/>
<path d="M0 0 C1 4 1 4 1 4 Z " fill="#FFFFFF" transform="translate(179,102)"/>
<path d="M0 0 C0.99 0.495 0.99 0.495 2 1 C1.67 1.66 1.34 2.32 1 3 C0.67 2.01 0.34 1.02 0 0 Z " fill="#FFFFFF" transform="translate(126,64)"/>
<path d="M0 0 C1 4 1 4 1 4 Z " fill="#FFFFFF" transform="translate(147,48)"/>
<path d="M0 0 C3 1 3 1 3 1 Z " fill="#FFFFFF" transform="translate(185,275)"/>
<path d="M0 0 C0.33 0.66 0.66 1.32 1 2 C0.34 1.67 -0.32 1.34 -1 1 C-0.67 0.67 -0.34 0.34 0 0 Z " fill="#FFFFFF" transform="translate(284,118)"/>
<path d="" fill="#FFFFFF" transform="translate(0,0)"/>
<path d="M0 0 C2 1 2 1 2 1 Z " fill="#FFFFFF" transform="translate(279,275)"/>
<path d="M0 0 C2 1 2 1 2 1 Z " fill="#FFFFFF" transform="translate(138,275)"/>
<path d="M0 0 C2 1 2 1 2 1 Z " fill="#FFFFFF" transform="translate(35,275)"/>
<path d="" fill="#FFFFFF" transform="translate(0,0)"/>
<path d="" fill="#FFFFFF" transform="translate(0,0)"/>
<path d="" fill="#FFFFFF" transform="translate(0,0)"/>
<path d="M0 0 C2 1 2 1 2 1 Z " fill="#FFFFFF" transform="translate(34,196)"/>
<path d="M0 0 C2 1 2 1 2 1 Z " fill="#FFFFFF" transform="translate(279,194)"/>
<path d="" fill="#FFFFFF" transform="translate(0,0)"/>
<path d="" fill="#FFFFFF" transform="translate(0,0)"/>
<path d="" fill="#FFFFFF" transform="translate(0,0)"/>
<path d="" fill="#FFFFFF" transform="translate(0,0)"/>
<path d="M0 0 C2 1 2 1 2 1 Z " fill="#FFFFFF" transform="translate(162,96)"/>
<path d="M0 0 C2 1 2 1 2 1 Z " fill="#FFFFFF" transform="translate(150,96)"/>
<path d="M0 0 C2 1 2 1 2 1 Z " fill="#FFFFFF" transform="translate(167,95)"/>
<path d="M0 0 C2 1 2 1 2 1 Z " fill="#FFFFFF" transform="translate(160,95)"/>
<path d="M0 0 C2 1 2 1 2 1 Z " fill="#FFFFFF" transform="translate(152,95)"/>
<path d="" fill="#FFFFFF" transform="translate(0,0)"/>
<path d="" fill="#FFFFFF" transform="translate(0,0)"/>
<path d="" fill="#FFFFFF" transform="translate(0,0)"/>
<path d="" fill="#FFFFFF" transform="translate(0,0)"/>
<path d="" fill="#FFFFFF" transform="translate(0,0)"/>
<path d="" fill="#FFFFFF" transform="translate(0,0)"/>
<path d="" fill="#FFFFFF" transform="translate(0,0)"/>
<path d="" fill="#FFFFFF" transform="translate(0,0)"/>
<path d="" fill="#FFFFFF" transform="translate(0,0)"/>
<path d="" fill="#FFFFFF" transform="translate(0,0)"/>
<path d="" fill="#FFFFFF" transform="translate(0,0)"/>
<path d="" fill="#FFFFFF" transform="translate(0,0)"/>
<path d="M0 0 C2 1 2 1 2 1 Z " fill="#FFFFFF" transform="translate(33,42)"/>
<path d="M0 0 C2 1 2 1 2 1 Z " fill="#FFFFFF" transform="translate(152,41)"/>
<path d="M0 0 C2 1 2 1 2 1 Z " fill="#FFFFFF" transform="translate(280,40)"/>
<path d="M0 0 C2 1 2 1 2 1 Z " fill="#FFFFFF" transform="translate(154,40)"/>
<path d="" fill="#FFFFFF" transform="translate(0,0)"/>
<path d="" fill="#FFFFFF" transform="translate(0,0)"/>
<path d="" fill="#FFFFFF" transform="translate(0,0)"/>
<path d="" fill="#FFFFFF" transform="translate(0,0)"/>
<path d="" fill="#FFFFFF" transform="translate(0,0)"/>
<path d="" fill="#FFFFFF" transform="translate(0,0)"/>
<path d="" fill="#FFFFFF" transform="translate(0,0)"/>
<path d="" fill="#FFFFFF" transform="translate(0,0)"/>
<path d="" fill="#FFFFFF" transform="translate(0,0)"/>
<path d="" fill="#FFFFFF" transform="translate(0,0)"/>
<path d="" fill="#FFFFFF" transform="translate(0,0)"/>
<path d="" fill="#FFFFFF" transform="translate(0,0)"/>
<path d="" fill="#FFFFFF" transform="translate(0,0)"/>
<path d="" fill="#FFFFFF" transform="translate(0,0)"/>
<path d="" fill="#FFFFFF" transform="translate(0,0)"/>
<path d="" fill="#FFFFFF" transform="translate(0,0)"/>
<path d="" fill="#FFFFFF" transform="translate(0,0)"/>
<path d="" fill="#FFFFFF" transform="translate(0,0)"/>
<path d="" fill="#FFFFFF" transform="translate(0,0)"/>
<path d="" fill="#FFFFFF" transform="translate(0,0)"/>
<path d="" fill="#FFFFFF" transform="translate(0,0)"/>
<path d="" fill="#FFFFFF" transform="translate(0,0)"/>
<path d="" fill="#FFFFFF" transform="translate(0,0)"/>
<path d="" fill="#FFFFFF" transform="translate(0,0)"/>
<path d="" fill="#FFFFFF" transform="translate(0,0)"/>
<path d="" fill="#FFFFFF" transform="translate(0,0)"/>
<path d="" fill="#FFFFFF" transform="translate(0,0)"/>
<path d="" fill="#FFFFFF" transform="translate(0,0)"/>
<path d="" fill="#FFFFFF" transform="translate(0,0)"/>
<path d="" fill="#FFFFFF" transform="translate(0,0)"/>
<path d="" fill="#FFFFFF" transform="translate(0,0)"/>
<path d="" fill="#FFFFFF" transform="translate(0,0)"/>
</svg>
